<svg width="590" height="511" viewBox="0 0 590 511" fill="none" xmlns="http://www.w3.org/2000/svg">
<g clip-path="url(#clip0_2_2159)">
<path d="M405.554 157.951C405.533 169.497 402.089 180.777 395.656 190.366C389.223 199.955 380.091 207.421 369.414 211.82C358.737 216.22 346.995 217.355 335.672 215.082C324.35 212.81 313.956 207.231 305.805 199.053C297.653 190.874 292.111 180.463 289.878 169.134C287.645 157.806 288.822 146.071 293.26 135.412C297.699 124.752 305.199 115.648 314.812 109.251C324.425 102.853 335.72 99.4496 347.269 99.4701C354.942 99.4638 362.541 100.974 369.629 103.913C376.717 106.852 383.154 111.163 388.57 116.597C393.986 122.032 398.275 128.483 401.19 135.579C404.104 142.676 405.587 150.279 405.554 157.951Z" fill="#F2F2F2"/>
<path d="M502.732 191.98L510.941 176.307C503.579 167.419 479.425 156.639 479.425 156.639L446.733 126.889C446.385 125.561 445.694 124.349 444.728 123.374C443.762 122.399 442.557 121.696 441.233 121.334C439.908 120.973 438.513 120.967 437.185 121.317C435.858 121.667 434.647 122.36 433.673 123.326C432.698 124.293 431.996 125.499 431.637 126.823C431.277 128.147 431.273 129.543 431.624 130.87C431.975 132.196 432.67 133.407 433.638 134.379C434.606 135.352 435.813 136.053 437.138 136.411L472.456 178.761L502.732 191.98Z" fill="#9E616A"/>
<path d="M498.755 190.899L510.347 194.589C518.777 197.272 527.861 197.07 536.163 194.014C538.674 193.079 540.874 191.461 542.514 189.342C544.153 187.223 545.168 184.687 545.442 182.022C545.789 178.407 544.75 174.795 542.535 171.916C540.32 169.037 537.094 167.107 533.51 166.515C522.639 164.729 508.631 163.848 503.634 169.793L503.584 169.854L498.755 190.899Z" fill="#3F3D56"/>
<path d="M415.373 238.88C447.62 238.88 473.762 212.743 473.762 180.502C473.762 148.262 447.62 122.125 415.373 122.125C383.125 122.125 356.984 148.262 356.984 180.502C356.984 212.743 383.125 238.88 415.373 238.88Z" fill="white"/>
<path d="M391.543 157.668C390.742 161.973 389.428 166.166 387.629 170.159C377.329 191.944 406.661 184.843 417.144 184.843C428.604 184.843 439.57 190.868 437.895 164.095C437.18 152.659 428.604 143.348 417.144 143.348C407.354 143.348 393.59 147.698 391.543 157.668Z" fill="#2F2E41"/>
<path d="M415.426 184.838C424.74 184.838 432.29 177.289 432.29 167.978C432.29 158.667 424.74 151.118 415.426 151.118C406.113 151.118 398.563 158.667 398.563 167.978C398.563 177.289 406.113 184.838 415.426 184.838Z" fill="#FFB6B6"/>
<path d="M403.975 150.792C406.93 148.991 410.314 148.016 413.775 147.971C417.235 147.925 420.644 148.81 423.646 150.532C426.647 152.255 429.131 154.752 430.836 157.763C432.542 160.773 433.408 164.187 433.342 167.646C424.749 169.803 415.722 171.454 406.559 168.162L404.395 162.867L403.119 168.166C400.328 169.306 397.531 170.271 394.733 168.155C394.619 164.705 395.412 161.286 397.034 158.239C398.656 155.192 401.049 152.624 403.975 150.792Z" fill="#2F2E41"/>
<path d="M460.773 219.32C450.657 230.827 436.421 237.896 421.137 239.001C405.854 240.105 390.748 235.156 379.083 225.222L384.091 211.251C385.223 208.769 387.009 206.642 389.258 205.098C391.506 203.554 394.133 202.652 396.856 202.487L400.042 202.291L407.639 195.74C407.639 195.74 428.109 195.009 427.806 194.66L440.205 202.116L440.195 202.065L445.069 202.363C447.792 202.527 450.419 203.43 452.668 204.974C454.917 206.518 456.703 208.645 457.834 211.127L460.773 219.32Z" fill="#6C63FF"/>
<path d="M410.25 459.868L408.799 439.693C399.295 434.943 388.775 432.584 378.153 432.821C393.097 444.371 391.9 467.454 402.25 483.251C405.516 488.153 409.843 492.258 414.911 495.261C419.979 498.264 425.658 500.088 431.528 500.598L443.965 507.752C445.388 498.351 444.755 488.752 442.11 479.619C439.466 470.486 434.872 462.034 428.646 454.846C425.113 450.849 421.09 447.312 416.674 444.319C413.955 452.123 410.25 459.868 410.25 459.868Z" fill="#F2F2F2"/>
<path d="M32.0972 102.267L30.6464 82.092C21.1425 77.3421 10.6225 74.9834 1.52588e-05 75.2209C14.9445 86.7701 13.7475 109.853 24.0973 125.65C27.3631 130.553 31.6904 134.657 36.7585 137.66C41.8267 140.663 47.5058 142.487 53.375 142.998L65.8124 150.152C67.2351 140.75 66.6023 131.152 63.9577 122.018C61.313 112.885 56.7192 104.433 50.493 97.2457C46.9601 93.2481 42.9378 89.7112 38.5209 86.7185C35.8024 94.5222 32.0972 102.267 32.0972 102.267Z" fill="#F2F2F2"/>
<path d="M464.658 500.931L454.956 500.93L450.341 463.518H464.66L464.658 500.931Z" fill="#9E616A"/>
<path d="M467.132 510.333L435.85 510.332V509.937C435.851 506.708 437.134 503.612 439.417 501.329C441.7 499.046 444.797 497.764 448.026 497.763H448.027L453.741 493.429L464.402 497.764L467.133 497.764L467.132 510.333Z" fill="#2F2E41"/>
<path d="M550.161 500.931L540.46 500.93L535.845 463.518H550.163L550.161 500.931Z" fill="#9E616A"/>
<path d="M552.635 510.333L521.354 510.332V509.937C521.354 506.708 522.637 503.612 524.92 501.329C527.203 499.046 530.3 497.764 533.529 497.763H533.53L539.244 493.429L549.905 497.764L552.636 497.764L552.635 510.333Z" fill="#2F2E41"/>
<path d="M535.406 300.696L543.566 378.198C543.566 378.198 554.428 455.801 552.388 466.508C550.348 477.216 552.898 478.745 552.898 478.745L534.284 477.42C534.284 477.42 534.794 470.791 531.735 467.732C528.675 464.673 530.205 455.495 530.205 455.495L494.097 329.249L472.167 395.534C472.167 395.534 468.597 468.448 468.087 469.468C467.577 470.488 466.047 484.255 466.047 484.255H447.178C447.178 484.255 449.728 476.096 446.158 473.547C442.588 470.997 439.528 473.037 442.588 468.448C445.648 463.859 446.668 458.25 445.648 455.701C444.628 453.152 444.628 442.954 444.628 442.954C444.628 442.954 446.158 305.285 454.828 300.696C463.498 296.107 535.406 300.696 535.406 300.696Z" fill="#2F2E41"/>
<path d="M496.763 143.773C507.847 143.773 516.832 134.789 516.832 123.707C516.832 112.625 507.847 103.642 496.763 103.642C485.679 103.642 476.693 112.625 476.693 123.707C476.693 134.789 485.679 143.773 496.763 143.773Z" fill="#9E616A"/>
<path d="M542.342 309.143C503.474 317.168 451.967 303.371 451.967 303.371L465.707 243.822L460.822 181.504C460.226 173.883 464.567 166.739 471.321 164.208L480.647 160.715L488.356 149.682L510.374 150.404L519.176 161.988L526.123 165.672L541.182 173.658L541.248 173.691V173.724L536.522 219.555L533.672 247.189C533.672 247.189 542.329 278.269 540.552 282.39C538.776 286.506 540.32 284.518 540.751 286.718C541.182 288.918 542.501 289.057 542.7 293.391C542.905 297.718 542.342 309.143 542.342 309.143Z" fill="#3F3D56"/>
<path d="M589.328 511H289.094C288.916 510.999 288.745 510.928 288.62 510.802C288.494 510.676 288.424 510.506 288.424 510.328C288.424 510.15 288.494 509.979 288.62 509.853C288.745 509.727 288.916 509.656 289.094 509.655H589.328C589.506 509.655 589.677 509.726 589.803 509.852C589.929 509.978 590 510.149 590 510.328C590 510.506 589.929 510.677 589.803 510.803C589.677 510.929 589.506 511 589.328 511Z" fill="#CCCCCC"/>
<path d="M495.786 142.809C499.306 142.773 502.817 142.436 506.28 141.803C509.708 141.013 517.271 135.166 519.333 131.712C520.864 129.145 521.783 125.175 522.285 122.297C522.962 118.488 522.832 114.579 521.902 110.823C520.972 107.068 519.264 103.55 516.887 100.496C515.971 99.2169 514.727 98.2091 513.285 97.5791C513.157 97.533 513.026 97.4926 512.894 97.4586C510.804 96.9661 508.909 95.8602 507.452 94.283C507.169 93.9637 506.863 93.6652 506.538 93.3898C504.903 92.0815 502.982 91.1784 500.932 90.7545C497.62 89.9592 492.882 90.9558 486.849 93.7192C483.819 95.1076 480.455 94.7203 477.863 94.2277C477.718 94.2035 477.568 94.2178 477.43 94.2691C477.292 94.3204 477.17 94.407 477.076 94.5203C476.005 95.5781 474.574 96.1917 473.07 96.2378C472.15 96.302 471.216 97.6026 470.09 99.2963C469.835 99.6808 469.537 100.129 469.32 100.403L469.277 99.8891L468.771 100.477C467.975 101.401 467.426 102.512 467.174 103.705C466.923 104.898 466.978 106.136 467.334 107.302C467.69 108.469 468.336 109.526 469.21 110.376C470.085 111.226 471.161 111.841 472.337 112.163C473.271 112.386 474.224 112.513 475.183 112.542C475.765 112.579 476.366 112.618 476.944 112.703C478.799 113.033 480.537 113.838 481.988 115.041C483.439 116.243 484.553 117.801 485.222 119.562C485.38 119.969 485.63 120.334 485.951 120.63C486.273 120.925 486.658 121.143 487.077 121.266C487.496 121.389 487.938 121.414 488.368 121.339C488.798 121.264 489.206 121.091 489.558 120.834C490.145 120.352 490.84 120.02 491.584 119.864C492.327 119.709 493.097 119.736 493.828 119.942C494.463 120.275 494.965 120.815 495.25 121.473C495.593 122.206 496.148 122.819 496.842 123.236C499.208 124.379 499.507 129.708 498.783 134.175C498.085 138.481 496.567 141.623 495.091 141.814C493.955 141.961 493.827 142.046 493.749 142.249L493.68 142.431L493.813 142.597C494.448 142.808 495.121 142.881 495.786 142.809Z" fill="#2F2E41"/>
<path d="M415.373 239.611C403.68 239.611 392.25 236.144 382.527 229.649C372.805 223.154 365.227 213.923 360.753 203.122C356.278 192.322 355.107 180.437 357.388 168.971C359.67 157.505 365.3 146.973 373.568 138.706C381.837 130.44 392.371 124.811 403.839 122.53C415.307 120.249 427.194 121.42 437.997 125.893C448.8 130.367 458.033 137.943 464.529 147.664C471.026 157.384 474.493 168.812 474.493 180.502C474.475 196.174 468.241 211.198 457.157 222.279C446.074 233.36 431.047 239.593 415.373 239.611ZM415.373 122.857C403.969 122.857 392.822 126.237 383.34 132.572C373.858 138.906 366.468 147.909 362.104 158.442C357.74 168.976 356.599 180.566 358.823 191.749C361.048 202.931 366.539 213.202 374.603 221.264C382.666 229.326 392.94 234.816 404.124 237.041C415.309 239.265 426.902 238.123 437.437 233.76C447.973 229.397 456.978 222.009 463.313 212.529C469.649 203.049 473.03 191.904 473.03 180.502C473.013 165.219 466.933 150.567 456.124 139.76C445.314 128.953 430.659 122.874 415.373 122.857Z" fill="#3F3D56"/>
<path d="M211.302 117.486C243.549 117.486 269.691 91.3492 269.691 59.1084C269.691 26.8676 243.549 0.731201 211.302 0.731201C179.054 0.731201 152.913 26.8676 152.913 59.1084C152.913 91.3492 179.054 117.486 211.302 117.486Z" fill="white"/>
<path d="M214.004 65.0632C224.519 65.0632 233.044 56.5406 233.044 46.0274C233.044 35.5143 224.519 26.9917 214.004 26.9917C203.489 26.9917 194.965 35.5143 194.965 46.0274C194.965 56.5406 203.489 65.0632 214.004 65.0632Z" fill="#FFB8B8"/>
<path d="M230.768 33.452C230.768 33.452 235.725 23.9772 224.819 23.1158C224.819 23.1158 215.522 14.6834 206.045 21.5742C206.045 21.5742 200.876 21.5742 198.049 27.4226C198.049 27.4226 193.983 25.881 193.09 30.0066C193.09 30.0066 190.115 38.6201 193.09 46.3723C196.065 54.1244 197.053 54.9858 197.053 54.9858C197.053 54.9858 194.966 45.3658 206.864 44.5044C218.763 43.6431 229.679 36.1906 230.67 45.6655C231.662 55.1403 232.752 50.8602 232.752 50.8602C232.752 50.8602 242.17 37.3281 230.768 33.452Z" fill="#2F2E41"/>
<path d="M255.213 97.9256C245.097 109.433 230.861 116.502 215.577 117.607C200.293 118.711 185.188 113.762 173.523 103.828L178.531 89.8565C179.663 87.3749 181.449 85.2482 183.698 83.7043C185.946 82.1604 188.573 81.2576 191.296 81.0927L194.482 80.8972L202.079 74.3462C202.079 74.3462 222.549 73.6154 222.246 73.2655L234.645 80.7222L234.635 80.6707L239.509 80.9692C242.232 81.1334 244.859 82.0359 247.108 83.5799C249.357 85.1239 251.143 87.251 252.274 89.733L255.213 97.9256Z" fill="#6C63FF"/>
<path d="M211.302 118.217C199.609 118.217 188.179 114.75 178.456 108.255C168.734 101.76 161.157 92.5289 156.682 81.7282C152.207 70.9276 151.036 59.0428 153.318 47.5769C155.599 36.111 161.229 25.5789 169.498 17.3124C177.766 9.04599 188.3 3.41646 199.768 1.13575C211.236 -1.14496 223.123 0.0255764 233.926 4.49935C244.729 8.97312 253.962 16.5492 260.459 26.2695C266.955 35.9898 270.422 47.4179 270.422 59.1084C270.404 74.7795 264.17 89.8036 253.087 100.885C242.003 111.966 226.976 118.199 211.302 118.217ZM211.302 1.46257C199.898 1.46257 188.751 4.84344 179.269 11.1776C169.788 17.5118 162.397 26.5149 158.033 37.0483C153.67 47.5817 152.528 59.1723 154.752 70.3545C156.977 81.5367 162.468 91.8082 170.532 99.8701C178.596 107.932 188.869 113.422 200.054 115.647C211.238 117.871 222.831 116.729 233.366 112.366C243.902 108.003 252.907 100.615 259.242 91.1347C265.578 81.6549 268.959 70.5097 268.959 59.1084C268.942 43.8251 262.862 29.1727 252.053 18.3658C241.244 7.55886 226.588 1.47991 211.302 1.46257Z" fill="#3F3D56"/>
<path d="M75.0182 209.628C107.266 209.628 133.407 183.492 133.407 151.251C133.407 119.01 107.266 92.8736 75.0182 92.8736C42.7709 92.8736 16.6292 119.01 16.6292 151.251C16.6292 183.492 42.7709 209.628 75.0182 209.628Z" fill="white"/>
<path d="M47.9554 132.261C50.3698 124.568 55.8601 117.512 63.4531 114.912C71.0466 112.311 82.1653 116.272 87.8739 121.961C98.316 132.365 100.864 168.109 93.6901 179.405C92.2631 179.329 87.3392 179.273 85.895 179.219L83.8519 172.411V179.152C81.551 179.081 79.2321 179.032 76.8952 179.005C69.06 178.908 61.5677 175.777 55.9932 170.272C50.4188 164.766 47.1965 157.314 47.0038 149.482C46.8168 141.99 47.004 135.292 47.9554 132.261Z" fill="#2F2E41"/>
<path d="M74.1522 157.757C83.3425 157.757 90.7927 150.308 90.7927 141.12C90.7927 131.931 83.3425 124.483 74.1522 124.483C64.962 124.483 57.5118 131.931 57.5118 141.12C57.5118 150.308 64.962 157.757 74.1522 157.757Z" fill="#9E616A"/>
<path d="M59.791 126.508L78.9509 116.917C82.868 118.681 86.2416 121.462 88.7217 124.969C91.2018 128.477 92.6982 132.584 93.0557 136.865L93.5332 142.584L85.51 140.542L84.631 133.229L83.2685 139.972L79.5659 139.03L79.6011 127.676L75.8961 139.022L62.6719 135.984L59.791 126.508Z" fill="#2F2E41"/>
<path d="M118.347 189.882C108.231 201.39 93.9947 208.459 78.711 209.564C63.4274 210.668 48.3223 205.719 36.6567 195.785L41.6649 181.813C42.7966 179.332 44.5826 177.205 46.8314 175.661C49.0801 174.117 51.7068 173.215 54.4297 173.05L57.6158 172.854L65.2129 166.303C65.2129 166.303 85.6831 165.572 85.3794 165.222L97.7788 172.679L97.7685 172.628L102.643 172.926C105.366 173.09 107.993 173.993 110.242 175.537C112.491 177.081 114.277 179.208 115.408 181.69L118.347 189.882Z" fill="#6C63FF"/>
<path d="M75.0184 210.359C63.3255 210.359 51.8952 206.893 42.1729 200.398C32.4506 193.903 24.873 184.671 20.3983 173.871C15.9237 163.07 14.7529 151.185 17.0341 139.719C19.3152 128.253 24.9459 117.721 33.214 109.455C41.4821 101.188 52.0164 95.5589 63.4846 93.2782C74.9528 90.9975 86.8399 92.168 97.6427 96.6418C108.446 101.116 117.679 108.692 124.175 118.412C130.671 128.132 134.139 139.56 134.139 151.251C134.121 166.922 127.886 181.946 116.803 193.027C105.72 204.108 90.6926 210.341 75.0184 210.359ZM75.0184 93.605C63.6148 93.605 52.4674 96.9859 42.9856 103.32C33.5039 109.654 26.1138 118.657 21.7499 129.191C17.3859 139.724 16.2441 151.315 18.4688 162.497C20.6935 173.679 26.1849 183.951 34.2484 192.013C42.312 200.074 52.5855 205.565 63.77 207.789C74.9544 210.013 86.5474 208.872 97.0829 204.509C107.618 200.146 116.623 192.757 122.959 183.277C129.294 173.797 132.676 162.652 132.676 151.251C132.658 135.968 126.578 121.315 115.769 110.508C104.96 99.7013 90.3048 93.6223 75.0184 93.605Z" fill="#3F3D56"/>
<path d="M469.299 210.788L460.459 195.461C449.009 196.915 426.965 211.533 426.965 211.533L384.326 223.197C383.019 222.78 381.625 222.715 380.284 223.008C378.943 223.301 377.703 223.942 376.689 224.866C375.674 225.791 374.922 226.966 374.506 228.274C374.09 229.581 374.027 230.976 374.321 232.316C374.616 233.656 375.259 234.895 376.184 235.908C377.11 236.921 378.287 237.672 379.595 238.086C380.904 238.5 382.298 238.562 383.638 238.266C384.978 237.97 386.217 237.326 387.229 236.399L441.916 229.267L469.299 210.788Z" fill="#9E616A"/>
<path d="M466.255 213.566L486.046 196.993L488.925 183.653C489.481 181.032 489.292 178.307 488.381 175.788C487.469 173.269 485.871 171.054 483.767 169.395C480.899 167.166 477.292 166.108 473.674 166.436C470.056 166.764 466.698 168.453 464.278 171.162C456.946 179.383 448.699 190.737 451.044 198.141L451.067 198.216L466.255 213.566Z" fill="#3F3D56"/>
<path d="M162.925 271.14H88.5632C86.5703 271.138 84.6597 270.345 83.2506 268.936C81.8414 267.527 81.0487 265.617 81.0465 263.625V217.834C81.0487 215.842 81.8414 213.932 83.2506 212.523C84.6597 211.114 86.5703 210.321 88.5632 210.319H162.925C164.918 210.321 166.828 211.114 168.237 212.523C169.647 213.932 170.439 215.842 170.442 217.834V263.625C170.439 265.617 169.647 267.527 168.238 268.936C166.828 270.345 164.918 271.138 162.925 271.14Z" fill="#E6E6E6"/>
<path d="M133.38 265.242H93.7904C91.924 265.24 90.1345 264.498 88.8147 263.178C87.4949 261.859 86.7525 260.07 86.7503 258.204V223.255C86.7525 221.389 87.4949 219.6 88.8147 218.281C90.1345 216.961 91.924 216.219 93.7904 216.217H157.698C159.564 216.219 161.354 216.961 162.673 218.281C163.993 219.6 164.736 221.389 164.738 223.255V233.891C164.728 242.203 161.421 250.172 155.543 256.049C149.664 261.927 141.693 265.233 133.38 265.242Z" fill="white"/>
<path d="M151.323 235.354H100.165C99.723 235.354 99.2986 235.178 98.9857 234.865C98.6728 234.553 98.4971 234.128 98.4971 233.686C98.4971 233.243 98.6728 232.819 98.9857 232.506C99.2986 232.194 99.723 232.018 100.165 232.018H151.323C151.765 232.018 152.189 232.194 152.502 232.506C152.815 232.819 152.991 233.243 152.991 233.686C152.991 234.128 152.815 234.553 152.502 234.865C152.189 235.178 151.765 235.354 151.323 235.354Z" fill="#6C63FF"/>
<path d="M108.168 241.945H100.165C99.723 241.945 99.2986 241.77 98.9857 241.457C98.6728 241.144 98.497 240.72 98.497 240.277C98.497 239.835 98.6728 239.41 98.9857 239.098C99.2986 238.785 99.723 238.609 100.165 238.609H108.168C108.61 238.609 109.035 238.785 109.348 239.098C109.66 239.41 109.836 239.835 109.836 240.277C109.836 240.72 109.66 241.144 109.348 241.457C109.035 241.77 108.61 241.945 108.168 241.945Z" fill="#6C63FF"/>
<path d="M122.341 248.537H100.165C99.7236 248.536 99.3001 248.36 98.9879 248.047C98.6758 247.734 98.5005 247.31 98.5005 246.868C98.5005 246.427 98.6758 246.003 98.9879 245.69C99.3001 245.377 99.7236 245.201 100.165 245.2H122.341C122.783 245.201 123.206 245.377 123.518 245.69C123.831 246.003 124.006 246.427 124.006 246.868C124.006 247.31 123.831 247.734 123.518 248.047C123.206 248.36 122.783 248.536 122.341 248.537Z" fill="#6C63FF"/>
<path d="M78.4515 225.134C87.1391 225.134 94.1819 218.093 94.1819 209.407C94.1819 200.721 87.1391 193.68 78.4515 193.68C69.7638 193.68 62.7211 200.721 62.7211 209.407C62.7211 218.093 69.7638 225.134 78.4515 225.134Z" fill="#3F3D56"/>
<path d="M356.024 63.4539H281.663C279.67 63.4516 277.759 62.6591 276.35 61.2502C274.941 59.8413 274.148 57.9311 274.146 55.9386V10.1481C274.148 8.15557 274.941 6.24534 276.35 4.83643C277.759 3.42753 279.67 2.63501 281.663 2.63275H356.024C358.017 2.635 359.928 3.42752 361.337 4.83642C362.746 6.24533 363.539 8.15556 363.541 10.1481V55.9386C363.539 57.9311 362.746 59.8413 361.337 61.2502C359.928 62.6591 358.017 63.4516 356.024 63.4539Z" fill="#E6E6E6"/>
<path d="M326.479 57.5557H286.89C285.023 57.5537 283.234 56.8115 281.914 55.492C280.594 54.1725 279.852 52.3835 279.85 50.5174V15.5691C279.852 13.703 280.594 11.914 281.914 10.5945C283.234 9.27505 285.023 8.53286 286.89 8.53081H350.797C352.664 8.53288 354.453 9.27508 355.773 10.5946C357.092 11.9141 357.835 13.7031 357.837 15.5691V26.2046C357.827 34.5166 354.521 42.4855 348.642 48.3629C342.763 54.2404 334.793 57.5464 326.479 57.5557Z" fill="white"/>
<path d="M344.422 27.6677H293.265C292.822 27.6677 292.398 27.492 292.085 27.1791C291.772 26.8663 291.596 26.442 291.596 25.9996C291.596 25.5572 291.772 25.133 292.085 24.8201C292.398 24.5073 292.822 24.3316 293.265 24.3316H344.422C344.864 24.3316 345.289 24.5073 345.602 24.8201C345.914 25.133 346.09 25.5572 346.09 25.9996C346.09 26.442 345.914 26.8663 345.602 27.1791C345.289 27.492 344.864 27.6677 344.422 27.6677Z" fill="#6C63FF"/>
<path d="M301.267 34.2591H293.265C292.822 34.2591 292.398 34.0833 292.085 33.7705C291.772 33.4576 291.596 33.0333 291.596 32.5909C291.596 32.1485 291.772 31.7242 292.085 31.4114C292.398 31.0985 292.822 30.9228 293.265 30.9228H301.267C301.71 30.9228 302.134 31.0985 302.447 31.4114C302.76 31.7242 302.936 32.1485 302.936 32.5909C302.936 33.0333 302.76 33.4576 302.447 33.7705C302.134 34.0833 301.71 34.2591 301.267 34.2591Z" fill="#6C63FF"/>
<path d="M315.44 40.8504H293.265C292.823 40.8495 292.399 40.6733 292.087 40.3606C291.775 40.0479 291.6 39.6241 291.6 39.1823C291.6 38.7405 291.775 38.3167 292.087 38.0039C292.399 37.6912 292.823 37.5151 293.265 37.5141H315.44C315.883 37.5141 316.307 37.6899 316.62 38.0027C316.933 38.3156 317.109 38.7399 317.109 39.1823C317.109 39.6247 316.933 40.049 316.62 40.3618C316.307 40.6747 315.883 40.8504 315.44 40.8504Z" fill="#6C63FF"/>
<path d="M271.551 72.2947C280.238 72.2947 287.281 65.2534 287.281 56.5675C287.281 47.8816 280.238 40.8402 271.551 40.8402C262.863 40.8402 255.82 47.8816 255.82 56.5675C255.82 65.2534 262.863 72.2947 271.551 72.2947Z" fill="#3F3D56"/>
</g>
<defs>
<clipPath id="clip0_2_2159">
<rect width="590" height="511" fill="white"/>
</clipPath>
</defs>
</svg>
