<svg width="584" height="565" viewBox="0 0 584 565" fill="none" xmlns="http://www.w3.org/2000/svg">
<g clip-path="url(#clip0_2_2512)">
<path d="M409.843 563.093C409.231 563.734 408.596 564.367 407.953 565H334.618C334.015 564.383 333.42 563.75 332.825 563.093C332.801 563.069 332.777 563.037 332.753 563.013C324.786 554.215 319.769 541.426 316.642 527.941C316.441 527.123 316.264 526.298 316.087 525.465C315.267 521.675 314.6 517.845 314.053 514.047C313.957 513.39 313.86 512.732 313.78 512.075C313.04 506.619 312.542 501.25 312.22 496.21C312.18 495.561 312.14 494.928 312.1 494.295C311.511 484.261 311.505 474.201 312.084 464.167C312.084 464.167 312.18 464.167 312.365 464.175C312.904 464.199 314.198 464.255 316.103 464.367C321.353 464.688 331.258 465.489 342.906 467.38C343.542 467.484 344.185 467.596 344.828 467.708C354.681 469.331 364.4 471.677 373.906 474.728C374.502 474.928 375.088 475.128 375.683 475.329L375.691 475.369L382.983 511.835L386.006 479.375C388.41 480.457 390.749 481.611 392.992 482.845C393.619 483.189 394.23 483.534 394.833 483.886C399.961 486.782 404.616 490.441 408.637 494.736C432.554 521.154 427.433 544.768 409.843 563.093Z" fill="#F2F2F2"/>
<path d="M379.196 516.853L380.467 518.256C395.163 534.649 403.933 549.865 406.635 563.705C406.678 563.906 406.707 564.106 406.75 564.307L405.81 564.484L404.904 564.644C402.146 549.555 391.879 533.958 379.065 519.657C378.657 519.192 378.242 518.72 377.813 518.26C372.335 512.254 366.446 506.492 360.49 501.104C360.033 500.683 359.562 500.261 359.092 499.84C351.194 492.769 343.249 486.371 336.163 480.979C335.664 480.596 335.158 480.218 334.658 479.848C322.627 470.77 313.292 464.753 311.211 463.434C310.96 463.269 310.818 463.182 310.786 463.16L311.279 462.377L311.279 462.363L311.779 461.573C311.811 461.595 312.288 461.885 313.151 462.446C316.389 464.526 325.094 470.253 335.923 478.395C336.409 478.764 336.915 479.141 337.415 479.525C343.169 483.895 349.464 488.902 355.82 494.383C357.419 495.757 358.978 497.129 360.497 498.499C360.975 498.915 361.445 499.336 361.903 499.757C368.341 505.581 374.106 511.279 379.196 516.853Z" fill="white"/>
<path d="M343.598 465.825C343.381 466.346 343.148 466.867 342.906 467.38C341.07 471.341 338.721 475.045 335.92 478.397C335.51 478.878 335.092 479.367 334.658 479.848C333.484 481.138 332.236 482.385 330.912 483.59C325.495 488.477 319.076 492.13 312.099 494.295C311.874 494.367 311.657 494.439 311.432 494.503C311.472 495.136 311.513 495.761 311.553 496.41C311.778 496.346 311.995 496.282 312.22 496.21C319.622 493.986 326.435 490.148 332.166 484.976C333.567 483.714 334.901 482.379 336.162 480.978C336.595 480.505 337.014 480.016 337.416 479.527C340.411 475.94 342.905 471.964 344.828 467.708C345.053 467.196 345.278 466.683 345.495 466.162C344.852 466.05 344.217 465.938 343.598 465.825Z" fill="white"/>
<path d="M374.236 473.309C374.14 473.782 374.027 474.255 373.906 474.728C371.727 483.735 367.085 491.964 360.497 498.502C360.038 498.958 359.572 499.407 359.09 499.84C358.953 499.976 358.8 500.12 358.656 500.248C352.663 505.641 345.463 509.528 337.657 511.585C329.851 513.643 321.664 513.811 313.78 512.075C313.595 512.043 313.402 511.995 313.217 511.955C313.313 512.612 313.402 513.277 313.507 513.934C313.691 513.974 313.869 514.014 314.053 514.047C322.138 515.714 330.503 515.459 338.47 513.302C346.437 511.146 353.782 507.149 359.91 501.635C360.103 501.458 360.304 501.29 360.489 501.106C360.971 500.657 361.438 500.208 361.904 499.76C368.646 493.035 373.414 484.6 375.691 475.369C375.812 474.888 375.924 474.407 376.029 473.926C375.434 473.718 374.839 473.51 374.236 473.309Z" fill="white"/>
<path d="M392.992 481.49C393 481.939 393 482.396 392.992 482.845C392.858 495.508 387.93 507.653 379.196 516.851C378.746 517.332 378.28 517.796 377.814 518.261C377.307 518.75 376.8 519.239 376.278 519.703C368.19 526.968 357.974 531.45 347.137 532.487C336.299 533.525 325.414 531.063 316.087 525.465C315.927 525.382 315.771 525.291 315.621 525.192C315.814 526.042 316.007 526.875 316.216 527.708C316.36 527.788 316.497 527.869 316.642 527.941C326.239 533.274 337.269 535.482 348.188 534.255C359.107 533.028 369.368 528.427 377.532 521.098C378.055 520.625 378.577 520.152 379.067 519.655C379.55 519.199 380.008 518.734 380.466 518.253C389.324 508.942 394.437 496.711 394.833 483.886C394.849 483.453 394.857 483.021 394.857 482.588C394.246 482.212 393.619 481.851 392.992 481.49Z" fill="white"/>
<path d="M230.463 132.675H89.1423C87.9663 132.673 86.8388 132.207 86.0072 131.378C85.1756 130.55 84.7079 129.426 84.7065 128.254V21.3025C84.7078 20.1303 85.1756 19.0065 86.0072 18.1775C86.8387 17.3486 87.9663 16.8823 89.1423 16.881H262.607C263.783 16.8823 264.91 17.3486 265.742 18.1775C266.574 19.0065 267.041 20.1303 267.043 21.3025V96.2164C267.032 105.882 263.174 115.149 256.317 121.984C249.459 128.819 240.161 132.664 230.463 132.675Z" fill="white"/>
<path d="M230.464 133.075H89.1425C87.8599 133.074 86.6302 132.565 85.7233 131.661C84.8164 130.758 84.3062 129.532 84.3047 128.254V21.3025C84.3061 20.0241 84.8162 18.7984 85.7232 17.8944C86.6301 16.9904 87.8598 16.4818 89.1425 16.4803H262.607C263.89 16.4818 265.119 16.9903 266.026 17.8943C266.933 18.7984 267.443 20.024 267.445 21.3025V96.2164C267.434 105.989 263.534 115.357 256.601 122.267C249.668 129.177 240.268 133.064 230.464 133.075ZM89.1425 18.0829C88.2861 18.0839 87.4651 18.4235 86.8596 19.027C86.2541 19.6306 85.9135 20.4489 85.9126 21.3025V128.254C85.9135 129.107 86.2541 129.925 86.8596 130.529C87.4652 131.132 88.2861 131.472 89.1425 131.473H230.464C239.842 131.462 248.833 127.744 255.465 121.135C262.096 114.525 265.826 105.564 265.837 96.2164V21.3025C265.836 20.4489 265.495 19.6306 264.89 19.027C264.284 18.4235 263.463 18.0839 262.607 18.0829H89.1425Z" fill="#CCCCCC"/>
<path d="M228.317 53.0003H123.432C122.469 53.0003 121.546 52.6191 120.865 51.9405C120.184 51.2618 119.801 50.3414 119.801 49.3817C119.801 48.422 120.184 47.5015 120.865 46.8229C121.546 46.1443 122.469 45.763 123.432 45.763H228.317C229.279 45.7645 230.201 46.1464 230.881 46.8248C231.561 47.5033 231.943 48.4229 231.943 49.3817C231.943 50.3405 231.561 51.2601 230.881 51.9386C230.201 52.617 229.279 52.9989 228.317 53.0003Z" fill="#CCCCCC"/>
<path d="M228.317 77.9288H123.432C122.469 77.9288 121.546 77.5476 120.865 76.8689C120.184 76.1903 119.801 75.2699 119.801 74.3102C119.801 73.3504 120.184 72.43 120.865 71.7514C121.546 71.0728 122.469 70.6915 123.432 70.6915H228.317C229.28 70.6915 230.204 71.0728 230.885 71.7514C231.566 72.43 231.948 73.3504 231.948 74.3102C231.948 75.2699 231.566 76.1903 230.885 76.8689C230.204 77.5476 229.28 77.9288 228.317 77.9288Z" fill="#CCCCCC"/>
<path d="M228.317 103.57H123.432C122.469 103.57 121.546 103.189 120.865 102.51C120.184 101.831 119.801 100.911 119.801 99.9512C119.801 98.9914 120.184 98.071 120.865 97.3924C121.546 96.7138 122.469 96.3325 123.432 96.3325H228.317C229.28 96.3325 230.204 96.7138 230.885 97.3924C231.566 98.071 231.948 98.9914 231.948 99.9512C231.948 100.911 231.566 101.831 230.885 102.51C230.204 103.189 229.28 103.57 228.317 103.57Z" fill="#CCCCCC"/>
<path d="M261.305 43.2187C273.279 43.2187 282.986 33.5439 282.986 21.6094C282.986 9.67483 273.279 -1.52588e-05 261.305 -1.52588e-05C249.33 -1.52588e-05 239.624 9.67483 239.624 21.6094C239.624 33.5439 249.33 43.2187 261.305 43.2187Z" fill="#6C63FF"/>
<path d="M258.347 32.8561C257.973 32.8561 257.603 32.7691 257.268 32.6022C256.934 32.4353 256.642 32.1929 256.418 31.8943L250.503 24.0337C250.313 23.7812 250.175 23.4938 250.096 23.1881C250.017 22.8823 250 22.5641 250.045 22.2516C250.09 21.9391 250.196 21.6385 250.357 21.3669C250.518 21.0953 250.732 20.858 250.985 20.6686C251.239 20.4792 251.527 20.3414 251.834 20.2631C252.141 20.1848 252.46 20.1674 252.773 20.2121C253.087 20.2567 253.388 20.3625 253.661 20.5233C253.933 20.6841 254.172 20.8969 254.362 21.1494L258.231 26.2916L268.17 11.4327C268.525 10.9023 269.077 10.534 269.704 10.409C270.331 10.284 270.983 10.4124 271.515 10.766C272.047 11.1197 272.416 11.6695 272.542 12.2947C272.667 12.9198 272.538 13.569 272.184 14.0995L260.354 31.7856C260.14 32.1054 259.852 32.3695 259.515 32.5556C259.177 32.7418 258.8 32.8445 258.414 32.8553C258.392 32.8557 258.369 32.8561 258.347 32.8561Z" fill="white"/>
<path d="M178.302 225.567H36.9811C27.283 225.556 17.9853 221.711 11.1278 214.876C4.27019 208.041 0.412797 198.774 0.401855 189.108V114.194C0.403236 113.022 0.871065 111.898 1.70271 111.069C2.53436 110.24 3.66192 109.774 4.83805 109.772H178.302C179.478 109.774 180.606 110.24 181.437 111.069C182.269 111.898 182.737 113.022 182.738 114.194V221.145C182.737 222.317 182.269 223.441 181.437 224.27C180.606 225.099 179.478 225.565 178.302 225.567Z" fill="white"/>
<path d="M178.302 225.967H36.9812C27.1766 225.956 17.7768 222.069 10.8439 215.159C3.91095 208.249 0.0111476 198.881 0 189.108V114.194C0.0014533 112.916 0.511655 111.69 1.41867 110.786C2.32569 109.882 3.55545 109.373 4.83816 109.372H178.302C179.585 109.373 180.815 109.882 181.722 110.786C182.629 111.69 183.139 112.916 183.14 114.194V221.145C183.139 222.424 182.629 223.649 181.722 224.553C180.815 225.457 179.585 225.966 178.302 225.967ZM4.83816 110.974C3.98176 110.975 3.16072 111.315 2.55515 111.919C1.94958 112.522 1.60891 113.34 1.60788 114.194V189.108C1.61847 198.456 5.3487 207.417 11.9802 214.027C18.6117 220.636 27.6029 224.354 36.9812 224.365H178.302C179.159 224.364 179.98 224.024 180.585 223.421C181.191 222.817 181.532 221.999 181.533 221.145V114.194C181.532 113.34 181.191 112.522 180.585 111.919C179.98 111.315 179.159 110.975 178.302 110.974H4.83816Z" fill="#CCCCCC"/>
<path d="M144.013 145.892H39.1272C38.1643 145.892 37.2409 145.511 36.56 144.832C35.8791 144.153 35.4966 143.233 35.4966 142.273C35.4966 141.314 35.8791 140.393 36.56 139.715C37.2409 139.036 38.1643 138.655 39.1272 138.655H144.013C144.976 138.655 145.899 139.036 146.58 139.715C147.261 140.393 147.643 141.314 147.643 142.273C147.643 143.233 147.261 144.153 146.58 144.832C145.899 145.511 144.976 145.892 144.013 145.892Z" fill="#CCCCCC"/>
<path d="M144.013 170.82H39.1272C38.1643 170.82 37.2409 170.439 36.56 169.761C35.8791 169.082 35.4966 168.162 35.4966 167.202C35.4966 166.242 35.8791 165.322 36.56 164.643C37.2409 163.964 38.1643 163.583 39.1272 163.583H144.013C144.976 163.583 145.899 163.964 146.58 164.643C147.261 165.322 147.643 166.242 147.643 167.202C147.643 168.162 147.261 169.082 146.58 169.761C145.899 170.439 144.976 170.82 144.013 170.82Z" fill="#CCCCCC"/>
<path d="M144.013 196.461H39.1272C38.1643 196.461 37.2409 196.08 36.56 195.402C35.8791 194.723 35.4966 193.803 35.4966 192.843C35.4966 191.883 35.8791 190.963 36.56 190.284C37.2409 189.605 38.1643 189.224 39.1272 189.224H144.013C144.976 189.224 145.899 189.605 146.58 190.284C147.261 190.963 147.643 191.883 147.643 192.843C147.643 193.803 147.261 194.723 146.58 195.402C145.899 196.08 144.976 196.461 144.013 196.461Z" fill="#CCCCCC"/>
<path d="M178.498 136.969C190.473 136.969 200.179 127.294 200.179 115.359C200.179 103.425 190.473 93.7499 178.498 93.7499C166.524 93.7499 156.817 103.425 156.817 115.359C156.817 127.294 166.524 136.969 178.498 136.969Z" fill="#6C63FF"/>
<path d="M175.541 126.606C175.166 126.606 174.797 126.519 174.462 126.352C174.127 126.185 173.836 125.943 173.612 125.644L167.697 117.784C167.507 117.531 167.368 117.244 167.29 116.938C167.211 116.632 167.194 116.314 167.239 116.002C167.283 115.689 167.39 115.388 167.551 115.117C167.712 114.845 167.926 114.608 168.179 114.419C168.432 114.229 168.721 114.091 169.028 114.013C169.334 113.935 169.654 113.917 169.967 113.962C170.281 114.007 170.582 114.112 170.855 114.273C171.127 114.434 171.365 114.647 171.555 114.899L175.425 120.042L185.364 105.183C185.719 104.652 186.271 104.284 186.898 104.159C187.525 104.034 188.176 104.162 188.709 104.516C189.241 104.87 189.61 105.419 189.736 106.045C189.861 106.67 189.732 107.319 189.378 107.849L177.548 125.536C177.334 125.855 177.046 126.119 176.708 126.306C176.371 126.492 175.993 126.594 175.608 126.605C175.586 126.606 175.563 126.606 175.541 126.606Z" fill="white"/>
<path d="M354.385 325.257H156.645C146.947 325.246 137.649 321.401 130.791 314.566C123.934 307.731 120.076 298.464 120.065 288.798V178.611C120.067 177.1 120.67 175.651 121.742 174.583C122.814 173.515 124.268 172.913 125.784 172.912H354.385C355.901 172.914 357.354 173.515 358.426 174.583C359.498 175.651 360.101 177.1 360.103 178.611V319.557C360.101 321.068 359.498 322.517 358.426 323.585C357.354 324.654 355.901 325.255 354.385 325.257Z" fill="white"/>
<path d="M354.385 325.657H156.645C146.84 325.646 137.44 321.759 130.507 314.849C123.575 307.939 119.675 298.57 119.664 288.798V178.611C119.665 176.994 120.311 175.443 121.458 174.3C122.606 173.156 124.161 172.513 125.784 172.511H354.385C356.007 172.513 357.563 173.156 358.71 174.3C359.858 175.443 360.503 176.994 360.505 178.611V319.557C360.503 321.174 359.858 322.725 358.71 323.868C357.563 325.012 356.008 325.655 354.385 325.657ZM125.784 174.114C124.587 174.115 123.441 174.589 122.595 175.432C121.749 176.276 121.273 177.419 121.271 178.611V288.798C121.282 298.146 125.012 307.107 131.644 313.717C138.275 320.326 147.266 324.044 156.645 324.055H354.385C355.581 324.053 356.728 323.579 357.574 322.736C358.42 321.892 358.896 320.749 358.897 319.557V178.611C358.896 177.419 358.42 176.276 357.574 175.433C356.728 174.589 355.581 174.115 354.385 174.114H125.784Z" fill="#CCCCCC"/>
<path d="M309.196 220.384H170.972C170.343 220.385 169.72 220.262 169.139 220.023C168.558 219.784 168.03 219.433 167.585 218.99C167.14 218.547 166.787 218.021 166.546 217.442C166.305 216.863 166.181 216.242 166.181 215.615C166.181 214.989 166.305 214.368 166.546 213.789C166.787 213.21 167.14 212.684 167.585 212.241C168.03 211.798 168.558 211.447 169.139 211.208C169.72 210.969 170.343 210.846 170.972 210.847H309.196C309.825 210.846 310.448 210.969 311.029 211.208C311.61 211.447 312.138 211.798 312.583 212.241C313.028 212.684 313.381 213.21 313.622 213.789C313.863 214.368 313.987 214.989 313.987 215.615C313.987 216.242 313.863 216.863 313.622 217.442C313.381 218.021 313.028 218.547 312.583 218.99C312.138 219.433 311.61 219.784 311.029 220.023C310.448 220.262 309.825 220.385 309.196 220.384Z" fill="#CCCCCC"/>
<path d="M309.196 253.236H170.972C170.343 253.237 169.72 253.114 169.139 252.875C168.558 252.636 168.03 252.285 167.585 251.842C167.14 251.399 166.787 250.873 166.546 250.294C166.305 249.715 166.181 249.094 166.181 248.468C166.181 247.841 166.305 247.22 166.546 246.641C166.787 246.062 167.14 245.536 167.585 245.093C168.03 244.65 168.558 244.299 169.139 244.06C169.72 243.821 170.343 243.698 170.972 243.699H309.196C310.465 243.699 311.682 244.201 312.579 245.095C313.477 245.99 313.981 247.203 313.981 248.468C313.981 249.732 313.477 250.945 312.579 251.84C311.682 252.734 310.465 253.236 309.196 253.236Z" fill="#CCCCCC"/>
<path d="M309.196 287.028H170.972C169.703 287.028 168.486 286.525 167.589 285.631C166.692 284.736 166.188 283.524 166.188 282.259C166.188 280.994 166.692 279.781 167.589 278.887C168.486 277.992 169.703 277.49 170.972 277.49H309.196C309.825 277.489 310.448 277.612 311.029 277.851C311.61 278.09 312.138 278.442 312.583 278.884C313.028 279.327 313.381 279.853 313.622 280.432C313.863 281.011 313.987 281.632 313.987 282.259C313.987 282.886 313.863 283.506 313.622 284.085C313.381 284.664 313.028 285.19 312.583 285.633C312.138 286.076 311.61 286.427 311.029 286.666C310.448 286.906 309.825 287.028 309.196 287.028Z" fill="#CCCCCC"/>
<path d="M355.103 208.893C370.261 208.893 382.548 196.645 382.548 181.538C382.548 166.43 370.261 154.183 355.103 154.183C339.945 154.183 327.657 166.43 327.657 181.538C327.657 196.645 339.945 208.893 355.103 208.893Z" fill="#6C63FF"/>
<path d="M351.359 195.775C350.885 195.775 350.417 195.665 349.993 195.453C349.569 195.242 349.201 194.935 348.916 194.557L341.429 184.607C341.188 184.287 341.013 183.923 340.914 183.536C340.814 183.149 340.792 182.746 340.849 182.351C340.906 181.955 341.04 181.575 341.244 181.231C341.449 180.887 341.719 180.587 342.04 180.347C342.36 180.107 342.725 179.933 343.114 179.834C343.502 179.734 343.906 179.712 344.303 179.769C344.7 179.825 345.082 179.959 345.427 180.163C345.772 180.367 346.073 180.636 346.314 180.956L351.212 187.465L363.794 168.655C364.243 167.985 364.942 167.52 365.735 167.362C366.528 167.205 367.352 167.367 368.025 167.815C368.698 168.262 369.166 168.957 369.325 169.748C369.484 170.538 369.322 171.36 368.874 172.031L353.899 194.42C353.628 194.824 353.264 195.159 352.837 195.394C352.409 195.63 351.932 195.76 351.444 195.774C351.415 195.774 351.387 195.775 351.359 195.775Z" fill="white"/>
<path d="M426.204 543.162L415.039 546.884L395.32 505.727L411.801 500.234L426.204 543.162Z" fill="#FFB6B6"/>
<path d="M432.673 553L396.668 562.598L396.516 562.144C395.264 558.413 395.544 556.823 397.306 553.302C398.168 551.569 399.366 550.022 400.831 548.753C402.296 547.484 404 546.517 405.842 545.908L405.843 545.908L410.751 538.743L424.691 539.626L427.834 538.578L432.673 553Z" fill="#2F2E41"/>
<path d="M453.793 553.625H442.019L436.417 508.361L453.795 508.362L453.793 553.625Z" fill="#FFB6B6"/>
<path d="M456.795 562.598L418.831 562.596V562.118C418.831 558.184 420.368 556.888 423.159 554.107C424.528 552.735 426.157 551.648 427.95 550.907C429.743 550.167 431.666 549.788 433.608 549.793H433.608L440.543 544.55L453.482 549.794L456.796 549.794L456.795 562.598Z" fill="#2F2E41"/>
<path d="M364.184 190.958C364.426 192.188 364.936 193.349 365.678 194.361C366.42 195.373 367.375 196.21 368.476 196.814C369.578 197.418 370.798 197.774 372.053 197.857C373.307 197.94 374.565 197.748 375.736 197.294L389.329 211.438L399.968 205.302L380.491 185.596C379.595 183.685 378.027 182.167 376.084 181.331C374.141 180.494 371.958 180.397 369.948 181.058C367.938 181.719 366.241 183.092 365.179 184.917C364.116 186.741 363.762 188.891 364.184 190.958Z" fill="#FFB6B6"/>
<path d="M452.152 262.077L458.28 255.758L422.844 223.047L387.179 191.307L377.301 205.219L414.675 239.989L452.152 262.077Z" fill="#E4E4E4"/>
<path d="M430.379 476.742C430.379 468.8 430.537 463.136 430.664 458.585C431.034 445.265 431.134 441.684 426.02 418.746L424.706 412.855L416.961 436.015C414.487 443.403 413.223 451.14 413.217 458.928L425.16 530.348H400.75L382.873 453.136L382.864 429.518C381.289 427.894 380.409 425.723 380.409 423.464C380.409 421.205 381.289 419.034 382.864 417.409L388.804 382.026L394.815 334.339H460.664C460.664 334.339 472.285 358.347 460.736 382.161L460.735 476.771L454.768 542.188H436.347L430.379 476.742Z" fill="#2F2E41"/>
<path d="M456.638 340.111L395.045 334.995L394.726 334.969L399.641 246.785C399.93 241.24 401.882 235.91 405.244 231.483C408.607 227.057 413.224 223.738 418.5 221.956V215.785C418.502 214.258 419.112 212.793 420.195 211.713C421.279 210.633 422.748 210.026 424.281 210.024H433.28C434.354 210.021 435.408 210.317 436.322 210.88C437.236 211.443 437.973 212.25 438.45 213.209L442.851 221.981L459.491 235.249C467.71 241.803 461.095 307.506 460.739 310.973L464.764 331.029C464.985 332.133 464.958 333.271 464.685 334.363C464.413 335.455 463.9 336.473 463.186 337.344C462.471 338.215 461.572 338.917 460.552 339.4C459.533 339.883 458.419 340.136 457.29 340.138C457.074 340.138 456.856 340.129 456.638 340.111Z" fill="#E4E4E4"/>
<path d="M391.412 363.395C392.386 362.602 393.173 361.607 393.719 360.478C394.265 359.349 394.556 358.115 394.571 356.862C394.587 355.609 394.327 354.368 393.809 353.226C393.291 352.084 392.528 351.07 391.575 350.253L397.686 331.639L387.242 325.179L378.982 351.587C377.713 353.275 377.109 355.368 377.284 357.47C377.46 359.573 378.403 361.538 379.935 362.993C381.467 364.449 383.482 365.293 385.597 365.367C387.712 365.441 389.781 364.74 391.412 363.395Z" fill="#FFB6B6"/>
<path d="M412.891 236.849L404.412 234.032L392.165 288.493L380.885 342.655L397.85 345.143L411.007 287.554L412.891 236.849Z" fill="#E4E4E4"/>
<path d="M422.151 204.388C433.323 204.388 442.38 195.361 442.38 184.226C442.38 173.09 433.323 164.064 422.151 164.064C410.979 164.064 401.922 173.09 401.922 184.226C401.922 195.361 410.979 204.388 422.151 204.388Z" fill="#FFB6B6"/>
<path d="M394.933 174.352C395.119 172.441 395.669 170.583 396.552 168.877C397.498 170.926 400.447 171.282 402.466 170.262C404.485 169.242 405.838 167.304 407.281 165.566C411.088 160.98 416.323 157.259 422.257 156.581C428.191 155.904 434.731 158.889 436.973 164.407C437.979 163.014 440.126 162.859 441.644 163.668C443.111 164.59 444.256 165.942 444.921 167.538C446.414 170.592 447.258 173.92 447.4 177.314C447.542 180.709 446.978 184.096 445.744 187.262C443.245 193.564 437.075 202.055 430.709 204.433C426.844 205.877 422.941 204.029 418.83 204.433C419.046 199.962 419.915 194.446 420.13 189.975C420.248 187.526 420.266 184.787 418.588 182.994C418.073 182.507 417.457 182.139 416.784 181.916C416.11 181.692 415.396 181.619 414.691 181.701C413.986 181.783 413.308 182.018 412.704 182.39C412.101 182.762 411.587 183.262 411.198 183.854C410.99 182.464 410.519 181.126 409.81 179.911C409.447 179.309 408.921 178.82 408.293 178.499C407.665 178.178 406.96 178.039 406.257 178.097C404.541 178.377 403.481 180.133 401.906 180.868C401.011 181.226 400.029 181.302 399.089 181.088C398.15 180.873 397.299 180.377 396.65 179.667C396.02 178.942 395.543 178.097 395.247 177.184C394.952 176.271 394.845 175.307 394.933 174.352Z" fill="#2F2E41"/>
<path opacity="0.1" d="M424.769 287.31L401.012 334.667H418.831L424.769 287.31Z" fill="black"/>
<path d="M584 564.046C584 564.172 583.976 564.296 583.928 564.412C583.88 564.528 583.81 564.633 583.721 564.722C583.632 564.81 583.526 564.88 583.41 564.928C583.294 564.976 583.169 565 583.043 565H129.388C129.135 565 128.891 564.9 128.712 564.721C128.532 564.542 128.432 564.299 128.432 564.046C128.432 563.794 128.532 563.551 128.712 563.372C128.891 563.193 129.135 563.093 129.388 563.093H583.043C583.169 563.093 583.294 563.117 583.41 563.165C583.526 563.213 583.632 563.283 583.721 563.371C583.81 563.46 583.88 563.565 583.928 563.681C583.976 563.797 584 563.921 584 564.046Z" fill="#CACACA"/>
</g>
<defs>
<clipPath id="clip0_2_2512">
<rect width="584" height="565" fill="white"/>
</clipPath>
</defs>
</svg>
