<svg width="703" height="554" viewBox="0 0 703 554" fill="none" xmlns="http://www.w3.org/2000/svg">
<g clip-path="url(#clip0_2_2020)">
<path d="M352.231 15.4883C352.199 17.295 351.811 19.0776 351.09 20.7344C350.369 22.3912 349.328 23.8896 348.028 25.1442C346.727 26.3987 345.192 27.3847 343.511 28.0459C341.829 28.7071 340.033 29.0305 338.227 28.9977H273.258C273.022 28.9916 272.787 28.9856 272.551 28.9675C271.943 28.9282 271.337 28.8455 270.74 28.72V5.72148C270.74 4.80127 271.021 3.90289 271.545 3.14665C272.069 2.39041 272.812 1.8124 273.674 1.48999H338.722C342.368 1.55893 345.838 3.07146 348.371 5.69574C350.904 8.32002 352.292 11.8417 352.231 15.4883Z" fill="#FCF9FE"/>
<path d="M695.24 1.63353e-05H276.24C275.338 -0.00265058 274.442 0.163544 273.6 0.490022C272.173 1.02413 270.942 1.98169 270.073 3.2345C269.205 4.48731 268.74 5.97557 268.74 7.50002V464.5C268.741 466.489 269.532 468.396 270.938 469.803C272.344 471.209 274.251 471.999 276.24 472H695.24C697.229 471.999 699.137 471.209 700.543 469.803C701.949 468.396 702.74 466.489 702.74 464.5V7.50002C702.74 5.51111 701.949 3.60388 700.543 2.19751C699.137 0.791144 697.229 0.000737252 695.24 1.63353e-05ZM699.74 464.5C699.739 465.693 699.264 466.836 698.42 467.68C697.577 468.524 696.433 468.998 695.24 469H276.24C275.047 468.998 273.904 468.524 273.06 467.68C272.217 466.836 271.742 465.693 271.74 464.5V7.50002C271.742 6.30709 272.217 5.16355 273.06 4.32002C273.904 3.4765 275.047 3.00181 276.24 3.00002H695.24C696.433 3.00181 697.577 3.4765 698.42 4.32002C699.264 5.16355 699.739 6.30709 699.74 7.50002V464.5Z" fill="#FCF9FE"/>
<path d="M472.858 157.021C478.294 157.021 482.701 152.615 482.701 147.178C482.701 141.742 478.294 137.335 472.858 137.335C467.422 137.335 463.015 141.742 463.015 147.178C463.015 152.615 467.422 157.021 472.858 157.021Z" fill="#72717E"/>
<path d="M513.871 157.021C519.307 157.021 523.714 152.615 523.714 147.178C523.714 141.742 519.307 137.335 513.871 137.335C508.435 137.335 504.028 141.742 504.028 147.178C504.028 152.615 508.435 157.021 513.871 157.021Z" fill="#72717E"/>
<path d="M390.833 238.361C396.269 238.361 400.676 233.954 400.676 228.518C400.676 223.081 396.269 218.675 390.833 218.675C385.397 218.675 380.99 223.081 380.99 228.518C380.99 233.954 385.397 238.361 390.833 238.361Z" fill="#72717E"/>
<path d="M431.846 238.361C437.282 238.361 441.689 233.954 441.689 228.518C441.689 223.081 437.282 218.675 431.846 218.675C426.41 218.675 422.003 223.081 422.003 228.518C422.003 233.954 426.41 238.361 431.846 238.361Z" fill="#72717E"/>
<path d="M472.858 279.03C478.294 279.03 482.701 274.623 482.701 269.187C482.701 263.751 478.294 259.344 472.858 259.344C467.422 259.344 463.015 263.751 463.015 269.187C463.015 274.623 467.422 279.03 472.858 279.03Z" fill="#72717E"/>
<path d="M513.871 279.03C519.307 279.03 523.714 274.623 523.714 269.187C523.714 263.751 519.307 259.344 513.871 259.344C508.435 259.344 504.028 263.751 504.028 269.187C504.028 274.623 508.435 279.03 513.871 279.03Z" fill="#72717E"/>
<path d="M554.883 279.03C560.32 279.03 564.726 274.623 564.726 269.187C564.726 263.751 560.32 259.344 554.883 259.344C549.447 259.344 545.04 263.751 545.04 269.187C545.04 274.623 549.447 279.03 554.883 279.03Z" fill="#72717E"/>
<path d="M308.242 7.27231C308.022 7.49172 307.899 7.7893 307.899 8.09959C307.899 8.40989 308.022 8.7075 308.242 8.92694L313.264 13.9499H300.879C300.569 13.9508 300.272 14.0745 300.054 14.2938C299.835 14.5132 299.712 14.8102 299.712 15.12C299.712 15.4297 299.835 15.7268 300.054 15.9461C300.272 16.1654 300.569 16.2891 300.879 16.29H313.264L308.242 21.3129C308.022 21.5323 307.899 21.8299 307.899 22.1402C307.899 22.4506 308.022 22.7482 308.242 22.9676C308.461 23.187 308.759 23.3103 309.069 23.3103C309.379 23.3103 309.677 23.187 309.896 22.9676L316.917 15.9473C317.136 15.7279 317.259 15.4303 317.259 15.12C317.259 14.8096 317.136 14.512 316.917 14.2926L309.896 7.27231C309.677 7.0529 309.379 6.92964 309.069 6.92964C308.759 6.92964 308.461 7.0529 308.242 7.27231Z" fill="#1F1D2B"/>
<path d="M604.887 168.178H340.592C339.57 168.178 338.74 167.73 338.74 167.178C338.74 166.626 339.57 166.178 340.592 166.178H604.887C605.91 166.178 606.739 166.626 606.739 167.178C606.739 167.73 605.91 168.178 604.887 168.178Z" fill="#FCF9FE"/>
<path d="M604.887 124H340.592C339.57 124 338.74 123.552 338.74 123C338.74 122.448 339.57 122 340.592 122H604.887C605.91 122 606.739 122.448 606.739 123C606.739 123.552 605.91 124 604.887 124Z" fill="#FCF9FE"/>
<path d="M605.739 209.441H339.978C339.712 209.441 339.458 209.336 339.271 209.148C339.083 208.961 338.978 208.706 338.978 208.441C338.978 208.176 339.083 207.921 339.271 207.734C339.458 207.546 339.712 207.441 339.978 207.441H605.739C606.004 207.441 606.259 207.546 606.446 207.734C606.634 207.921 606.739 208.176 606.739 208.441C606.739 208.706 606.634 208.961 606.446 209.148C606.259 209.336 606.004 209.441 605.739 209.441Z" fill="#FCF9FE"/>
<path d="M605.739 249.441H339.978C339.712 249.441 339.458 249.336 339.271 249.148C339.083 248.961 338.978 248.706 338.978 248.441C338.978 248.176 339.083 247.921 339.271 247.734C339.458 247.546 339.712 247.441 339.978 247.441H605.739C606.004 247.441 606.259 247.546 606.446 247.734C606.634 247.921 606.739 248.176 606.739 248.441C606.739 248.706 606.634 248.961 606.446 249.148C606.259 249.336 606.004 249.441 605.739 249.441Z" fill="#FCF9FE"/>
<path d="M605.739 290.441H339.978C339.712 290.441 339.458 290.336 339.271 290.148C339.083 289.961 338.978 289.706 338.978 289.441C338.978 289.176 339.083 288.921 339.271 288.734C339.458 288.546 339.712 288.441 339.978 288.441H605.739C606.004 288.441 606.259 288.546 606.446 288.734C606.634 288.921 606.739 289.176 606.739 289.441C606.739 289.706 606.634 289.961 606.446 290.148C606.259 290.336 606.004 290.441 605.739 290.441Z" fill="#FCF9FE"/>
<path d="M574.74 288.38V123.62C574.74 123.278 575.188 123 575.74 123C576.293 123 576.74 123.277 576.74 123.62V288.38C576.74 288.722 576.293 289 575.74 289C575.188 289 574.74 288.722 574.74 288.38Z" fill="#FCF9FE"/>
<path d="M533.74 288.38V123.62C533.74 123.278 534.188 123 534.74 123C535.293 123 535.74 123.277 535.74 123.62V288.38C535.74 288.722 535.293 289 534.74 289C534.188 289 533.74 288.722 533.74 288.38Z" fill="#FCF9FE"/>
<path d="M492.74 288.38V123.62C492.74 123.278 493.188 123 493.74 123C494.293 123 494.74 123.277 494.74 123.62V288.38C494.74 288.722 494.293 289 493.74 289C493.188 289 492.74 288.722 492.74 288.38Z" fill="#FCF9FE"/>
<path d="M452.74 288.38V123.62C452.74 123.278 453.188 123 453.74 123C454.293 123 454.74 123.277 454.74 123.62V288.38C454.74 288.722 454.293 289 453.74 289C453.188 289 452.74 288.722 452.74 288.38Z" fill="#FCF9FE"/>
<path d="M410.74 330.223V123.777C410.797 123.555 410.926 123.358 411.107 123.217C411.288 123.076 411.511 123 411.74 123C411.97 123 412.193 123.076 412.374 123.217C412.555 123.358 412.684 123.555 412.74 123.777V330.223C412.684 330.445 412.555 330.642 412.374 330.783C412.193 330.924 411.97 331 411.74 331C411.511 331 411.288 330.924 411.107 330.783C410.926 330.642 410.797 330.445 410.74 330.223Z" fill="#FCF9FE"/>
<path d="M368.74 330.223V123.777C368.797 123.555 368.926 123.358 369.107 123.217C369.288 123.076 369.511 123 369.74 123C369.97 123 370.193 123.076 370.374 123.217C370.555 123.358 370.684 123.555 370.74 123.777V330.223C370.684 330.445 370.555 330.642 370.374 330.783C370.193 330.924 369.97 331 369.74 331C369.511 331 369.288 330.924 369.107 330.783C368.926 330.642 368.797 330.445 368.74 330.223Z" fill="#FCF9FE"/>
<path d="M339.978 331.441C339.712 331.442 339.458 331.337 339.27 331.15C339.082 330.963 338.976 330.709 338.975 330.444C338.975 330.178 339.08 329.924 339.267 329.736C339.454 329.548 339.708 329.442 339.973 329.441L441.736 329C441.999 329.005 442.25 329.112 442.437 329.297C442.624 329.483 442.733 329.733 442.74 329.996C442.741 330.127 442.716 330.258 442.666 330.379C442.616 330.501 442.543 330.611 442.451 330.704C442.358 330.798 442.248 330.872 442.127 330.922C442.006 330.973 441.876 330.999 441.745 331L339.982 331.441H339.978Z" fill="#FCF9FE"/>
<path d="M414.378 80.1782C414.112 80.1784 413.858 80.0732 413.67 79.8858C413.483 79.6984 413.377 79.4442 413.377 79.179C413.377 78.9137 413.482 78.6593 413.669 78.4716C413.857 78.284 414.111 78.1784 414.376 78.1782L557.102 78H557.103C557.368 77.9998 557.623 78.105 557.81 78.2924C557.998 78.4798 558.104 78.7341 558.104 78.9993C558.104 79.2645 557.999 79.5189 557.812 79.7066C557.624 79.8943 557.37 79.9998 557.105 80L414.379 80.1782H414.378Z" fill="#FCF9FE"/>
<path d="M462.705 406.203C458.742 406.203 454.869 405.028 451.574 402.826C448.279 400.625 445.711 397.496 444.195 393.835C442.678 390.174 442.281 386.145 443.055 382.259C443.828 378.372 445.736 374.802 448.538 372C451.34 369.198 454.91 367.29 458.796 366.517C462.683 365.744 466.711 366.141 470.372 367.657C474.033 369.174 477.162 371.742 479.364 375.037C481.565 378.331 482.74 382.205 482.74 386.168C482.74 388.799 482.222 391.404 481.215 393.835C480.208 396.266 478.733 398.474 476.872 400.335C475.012 402.195 472.803 403.671 470.372 404.678C467.941 405.685 465.336 406.203 462.705 406.203Z" fill="#FCF9FE"/>
<path d="M470.61 384.191H464.681V378.262C464.681 377.738 464.473 377.235 464.103 376.865C463.732 376.494 463.229 376.286 462.705 376.286C462.181 376.286 461.678 376.494 461.307 376.865C460.937 377.235 460.729 377.738 460.729 378.262V384.191H454.799C454.275 384.191 453.773 384.4 453.402 384.77C453.031 385.141 452.823 385.644 452.823 386.168C452.823 386.692 453.031 387.194 453.402 387.565C453.773 387.936 454.275 388.144 454.799 388.144H460.729V394.073C460.728 394.333 460.779 394.591 460.878 394.831C460.977 395.071 461.122 395.29 461.306 395.474C461.489 395.658 461.708 395.804 461.948 395.903C462.188 396.003 462.445 396.054 462.705 396.054C462.965 396.054 463.222 396.003 463.462 395.903C463.702 395.804 463.921 395.658 464.104 395.474C464.288 395.29 464.433 395.071 464.532 394.831C464.631 394.591 464.682 394.333 464.681 394.073V388.144H470.61C471.135 388.144 471.637 387.936 472.008 387.565C472.379 387.194 472.587 386.692 472.587 386.168C472.587 385.644 472.379 385.141 472.008 384.77C471.637 384.4 471.135 384.191 470.61 384.191Z" fill="#1F1D2B"/>
<path d="M508.705 406.203C504.742 406.203 500.869 405.028 497.574 402.826C494.279 400.625 491.711 397.496 490.195 393.835C488.678 390.174 488.281 386.145 489.055 382.259C489.828 378.372 491.736 374.802 494.538 372C497.34 369.198 500.91 367.29 504.796 366.517C508.683 365.744 512.711 366.141 516.372 367.657C520.033 369.174 523.162 371.742 525.364 375.037C527.565 378.331 528.74 382.205 528.74 386.168C528.74 388.799 528.222 391.404 527.215 393.835C526.208 396.266 524.733 398.474 522.872 400.335C521.012 402.195 518.803 403.671 516.372 404.678C513.941 405.685 511.336 406.203 508.705 406.203Z" fill="#FCF9FE"/>
<path d="M518.846 394.694L513.627 388.584C514.848 386.855 515.379 384.731 515.114 382.63C514.849 380.53 513.807 378.604 512.194 377.233C510.58 375.862 508.512 375.145 506.396 375.222C504.28 375.299 502.27 376.165 500.761 377.65C499.252 379.135 498.353 381.131 498.241 383.245C498.129 385.359 498.813 387.439 500.157 389.074C501.502 390.71 503.41 391.783 505.506 392.082C507.602 392.382 509.734 391.886 511.483 390.693L516.564 396.642C516.823 396.942 517.191 397.128 517.586 397.158C517.982 397.188 518.373 397.06 518.674 396.803C518.976 396.545 519.163 396.179 519.195 395.783C519.227 395.388 519.102 394.996 518.846 394.694ZM501.205 383.668C501.205 382.58 501.528 381.517 502.132 380.612C502.736 379.708 503.595 379.003 504.6 378.586C505.605 378.17 506.711 378.061 507.778 378.273C508.845 378.486 509.825 379.009 510.594 379.779C511.363 380.548 511.887 381.528 512.099 382.595C512.312 383.662 512.203 384.767 511.786 385.772C511.37 386.777 510.665 387.636 509.761 388.241C508.856 388.845 507.793 389.168 506.705 389.168C505.247 389.166 503.849 388.586 502.818 387.555C501.787 386.524 501.207 385.126 501.205 383.668Z" fill="#1F1D2B"/>
<path d="M414.378 408.179C414.112 408.179 413.858 408.074 413.67 407.886C413.483 407.699 413.377 407.445 413.377 407.179C413.377 406.914 413.482 406.66 413.669 406.472C413.857 406.284 414.111 406.179 414.376 406.179L557.102 406H557.103C557.368 406 557.623 406.105 557.81 406.292C557.998 406.48 558.104 406.734 558.104 406.999C558.104 407.264 557.999 407.519 557.812 407.707C557.624 407.894 557.37 408 557.105 408L414.379 408.179H414.378Z" fill="#FCF9FE"/>
<path d="M231.731 539.012L244.488 539.011L250.557 489.808L231.729 489.809L231.731 539.012Z" fill="#FFB6B6"/>
<path d="M228.482 534.845V551.375H269.612V550.855C269.611 546.61 267.924 542.538 264.922 539.535C261.92 536.533 257.848 534.846 253.602 534.845L246.082 529.145L245.692 529.305L232.072 534.845H228.482Z" fill="#2F2E41"/>
<path d="M116.468 522.427L127.885 528.117L155.266 486.788L138.415 478.39L116.468 522.427Z" fill="#FFB6B6"/>
<path d="M108.042 532.045L144.852 550.385L145.082 549.925C146.021 548.044 146.58 545.997 146.728 543.9C146.875 541.802 146.608 539.696 145.941 537.703C145.274 535.709 144.221 533.866 142.842 532.279C141.462 530.692 139.784 529.393 137.902 528.455L133.712 520.005L133.272 519.975L118.632 518.845L118.332 518.695L115.412 517.245L108.042 532.045Z" fill="#2F2E41"/>
<path d="M240.383 274.546L170.042 277.008L169.552 276.296C169.552 276.296 163.552 290.296 163.552 302.296C163.552 306.285 166.327 332.38 164.916 337.318C164.741 337.932 165.948 339.436 165.552 342.296C165.295 344.151 163.878 342.724 163.552 345.296C163.318 347.141 165.813 348.16 165.552 350.296C165.267 352.628 161.835 360.184 161.526 362.779C158.237 390.405 153.859 430.427 153.859 430.427C153.859 430.427 136.272 477.53 132.552 478.296C126.307 479.58 122.092 490.934 125.552 493.296C127.2 494.42 148.496 501.984 148.496 501.984C149.667 502.196 153.327 500.36 150.995 496.018C150.566 495.218 153.126 497.253 153.552 496.296C154.004 495.278 153.116 491.229 153.634 490.099C158.289 479.956 165.435 465.899 172.206 458.681C182.212 448.017 188.548 434.435 190.291 419.916L205.824 333.791L211.147 357.943L215.552 362.296L214.343 372.445L214.552 382.296L225.552 423.296C225.552 423.296 227.202 499.864 224.552 502.296C223.117 503.613 217.027 519.834 228.552 521.296L249.49 519.68C249.49 519.68 252.311 513.735 250.901 511.619C249.49 509.503 249.575 510.081 251.296 506.618C253.017 503.156 252.311 497.288 252.311 497.288C255.054 469.714 256.136 442 255.552 414.295C254.502 368.792 248.142 316.518 248.142 315.453C248.088 314.364 248.289 313.278 248.727 312.28V309.408L246.026 299.231L240.383 274.546Z" fill="#2F2E41"/>
<path d="M149.316 300.131C148.726 299.123 148.365 297.998 148.257 296.835C148.149 295.673 148.297 294.5 148.691 293.401C149.085 292.302 149.715 291.302 150.538 290.473C151.36 289.643 152.354 289.004 153.45 288.601L152.944 238.059L165.41 245.946L163.977 293.848C164.534 295.734 164.379 297.758 163.542 299.537C162.705 301.317 161.245 302.727 159.438 303.502C157.63 304.276 155.602 304.361 153.736 303.739C151.871 303.118 150.298 301.834 149.316 300.131Z" fill="#FFB8B8"/>
<path d="M152.162 278.944L153.223 278.893L153.35 278.896L157.276 278.882L163.742 278.868L164.21 278.862L164.421 278.902L166.629 279.286L166.72 278.694L171.023 270.474L174.331 265.924L173.128 260.562L170.754 257.605L174.786 252.719L175.295 250.306L178.67 234.436L189.856 181.797L189.857 181.765L190.092 180.649L193.73 163.548L192.609 159.248L191.36 154.527C190.561 151.53 188.71 148.921 186.144 147.178C185.031 146.424 183.805 145.852 182.513 145.482C180.866 144.994 179.135 144.851 177.431 145.063L177.412 145.069C176.444 145.189 175.494 145.419 174.578 145.754L174.214 145.896C173.707 146.102 173.214 146.339 172.737 146.607C171.259 147.429 169.96 148.536 168.914 149.865C167.869 151.193 167.098 152.717 166.646 154.346L154.794 167.549L152.709 175.02L152.039 177.419L149.89 190.209L149.922 240.542L149.54 242.822L148.996 255.458L151.121 258.355L148.72 261.866L148.638 263.794L148.621 264.29L151.829 267.547L152.033 274.572L152.162 278.944Z" fill="#3F3D56"/>
<path d="M163.74 291C181.501 294.072 193.411 292.902 200.74 282C210.302 269.824 227.691 284.201 242.363 289.547L244.103 287.667L247.063 284.477L244.343 281.397L247.063 275.457L244.793 268.127L241.893 267.597L242.673 261.287L243.893 257.597L240.313 253.667L237.273 243.857L239.463 223.327C242.46 195.186 236.653 166.808 222.843 142.107L214.533 134.647L211.083 131.547L206.453 122.907L201.563 123.477L188.323 125.007L187.873 126.087L184.623 133.927L172.817 146.609C171.147 148.403 169.878 150.531 169.095 152.853C168.311 155.176 168.031 157.638 168.273 160.077L168.613 163.497L168.863 165.957L170.043 177.797L174.853 226.167L175.213 228.737L179.083 256.547C172.793 262.627 172.41 261.3 169.74 272C169.44 273.19 165.96 275.84 165.74 277C165.43 278.64 163.74 291 163.74 291Z" fill="#3F3D56"/>
<path d="M199.802 117.81C212.502 117.81 222.798 107.514 222.798 94.8135C222.798 82.113 212.502 71.8173 199.802 71.8173C187.101 71.8173 176.805 82.113 176.805 94.8135C176.805 107.514 187.101 117.81 199.802 117.81Z" fill="#FFB6B6"/>
<path d="M175.742 77.5025C178.829 74.2886 183.76 72.7035 187.947 74.2286C188.883 71.5494 190.537 69.1784 192.727 67.3738C194.917 65.5692 197.561 64.4002 200.37 63.994C203.179 63.5878 206.045 63.96 208.657 65.0701C211.269 66.1803 213.527 67.9857 215.184 70.2899C215.941 69.9497 216.774 69.8109 217.601 69.8869C218.428 69.9629 219.221 70.2511 219.904 70.7237C221.26 71.6879 222.353 72.9769 223.081 74.4726C224.962 78.0444 225.838 82.0591 225.617 86.0895C225.397 90.1198 224.087 94.0149 221.828 97.3601C222.728 95.543 220.198 98.6726 217.732 97.8527C215.614 97.2975 206.912 91.7179 204.74 92C202.569 92.282 201.865 90.531 199.74 90C197.66 89.3345 192.349 97.9354 191.284 103.626C191.083 104.705 190.593 106.045 189.496 106.069C188.145 106.1 187.74 104.165 186.601 103.438C186.064 103.165 185.442 103.111 184.866 103.288C184.29 103.464 183.805 103.858 183.513 104.385C183.246 104.927 183.113 105.524 183.125 106.128C183.136 106.732 183.291 107.324 183.578 107.855C184.16 108.912 184.909 109.867 185.796 110.685L185.206 111.009C184.625 111.425 183.917 111.626 183.204 111.578C182.49 111.529 181.816 111.235 181.297 110.744C179.1 111.734 173.127 106.146 173.92 102.765C172.252 98.6213 171.34 94.2118 171.227 89.7461C171.135 85.2416 172.747 80.8685 175.742 77.5025Z" fill="#2F2E41"/>
<path d="M344.433 214.577C343.319 214.928 342.142 215.031 340.984 214.878C339.827 214.725 338.717 214.319 337.732 213.691C336.748 213.062 335.914 212.226 335.288 211.24C334.662 210.254 334.26 209.142 334.11 207.984L284.721 197.242L295.181 186.841L341.567 198.886C343.529 198.763 345.468 199.364 347.017 200.576C348.566 201.787 349.616 203.524 349.969 205.459C350.323 207.393 349.954 209.389 348.934 211.07C347.914 212.751 346.312 213.999 344.433 214.577Z" fill="#FFB8B8"/>
<path d="M210.961 143.279C208.099 143.383 205.352 144.438 203.157 146.278C201.942 147.285 200.928 148.513 200.171 149.898C199.337 151.4 198.816 153.055 198.641 154.764L198.642 154.774C198.386 157.291 198.881 159.827 200.065 162.062C201.249 164.298 203.068 166.133 205.293 167.335L221.563 176.152L223.624 177.267C237.487 191.396 260.862 198.782 287.753 203.681L303.213 207.91L308.41 205.981L309.668 210.923L314.843 211.092L317.657 210.507L323.545 208.198L324.67 205.937L324.669 205.927L327.085 195.207L327.102 195.136L327.101 195.126L327.665 192.673L324.344 191.137L321.456 187.278L316.233 187.383L311.47 187.798L310.074 184.533L249.716 156.603L237.218 150.815L237.187 150.796L236.592 150.517L220.288 142.974L215.85 143.114L210.961 143.279Z" fill="#3F3D56"/>
<path d="M342.858 227.021C348.294 227.021 352.701 222.615 352.701 217.178C352.701 211.742 348.294 207.335 342.858 207.335C337.422 207.335 333.015 211.742 333.015 217.178C333.015 222.615 337.422 227.021 342.858 227.021Z" fill="#72717E"/>
<path d="M60.6931 546.31C53.4716 546.947 46.1991 545.962 39.4069 543.428C32.6146 540.895 26.4741 536.876 21.4338 531.665C14.8433 524.716 10.3206 515.773 5.94675 507.123C4.67355 504.606 3.35746 502.004 2.01854 499.509C0.525791 496.79 -0.118456 493.685 0.168793 490.596C0.456043 487.507 1.66162 484.575 3.63023 482.177C5.51677 479.78 8.07787 478.003 10.9836 477.075C13.8892 476.146 17.0063 476.109 19.9332 476.969L20.5715 477.153L26.3156 499.567C27.1726 496.224 29.0119 488.691 30.1735 481.311L30.271 480.693L30.843 480.948C36.8408 483.601 42.4806 487 47.6293 491.063C56.7501 498.379 64.1684 507.593 69.3685 518.066C74.5686 528.538 77.4258 540.018 77.7414 551.706L77.7566 552.403L60.6931 546.31Z" fill="#F2F2F2"/>
<path d="M279.941 552.901L1.19069 553.208C0.874901 553.208 0.572035 553.083 0.34874 552.859C0.125444 552.636 0 552.333 0 552.017C0 551.702 0.125444 551.399 0.34874 551.175C0.572035 550.952 0.874901 550.827 1.19069 550.827L279.941 550.519C280.256 550.52 280.558 550.646 280.78 550.869C281.003 551.092 281.128 551.395 281.128 551.71C281.128 552.025 281.003 552.328 280.78 552.551C280.558 552.774 280.256 552.9 279.941 552.901Z" fill="#CACACA"/>
<path d="M512.24 66.8206H459.24C458.047 66.8206 456.902 66.3464 456.058 65.5025C455.214 64.6586 454.74 63.514 454.74 62.3206C454.74 61.1271 455.214 59.9825 456.058 59.1386C456.902 58.2947 458.047 57.8206 459.24 57.8206H512.24C513.434 57.8206 514.578 58.2947 515.422 59.1386C516.266 59.9825 516.74 61.1271 516.74 62.3206C516.74 63.514 516.266 64.6586 515.422 65.5025C514.578 66.3464 513.434 66.8206 512.24 66.8206Z" fill="#FCF9FE"/>
<path d="M679.174 28.607C676.995 28.607 674.865 27.9608 673.053 26.7502C671.241 25.5396 669.829 23.8188 668.995 21.8056C668.161 19.7924 667.943 17.5771 668.368 15.4399C668.793 13.3026 669.843 11.3395 671.384 9.79864C672.924 8.25778 674.888 7.20845 677.025 6.78333C679.162 6.35821 681.377 6.5764 683.39 7.4103C685.404 8.2442 687.124 9.65637 688.335 11.4682C689.546 13.2801 690.192 15.4102 690.192 17.5893C690.192 20.5114 689.031 23.3138 686.965 25.38C684.899 27.4462 682.096 28.607 679.174 28.607Z" fill="#FCF9FE"/>
</g>
<defs>
<clipPath id="clip0_2_2020">
<rect width="702.74" height="553.208" fill="white"/>
</clipPath>
</defs>
</svg>
